<svg width="10" height="20" viewBox="0 0 10 20" fill="none" xmlns="http://www.w3.org/2000/svg">
<path d="M9.01448 6.9115H6.71077V4.9368C6.71077 3.91785 6.7913 3.27607 8.20918 3.27607H9.04132C9.57051 3.27607 10 2.83374 10 2.28872V1.05058C10 0.534194 9.61557 0.0928481 9.11514 0.0582908C8.53609 0.0178093 7.95609 -0.000950357 7.37513 3.69949e-05C4.77423 3.69949e-05 2.87604 1.63608 2.87604 4.6396V6.9115H0.958681C0.429489 6.9115 0 7.35383 0 7.89885V9.87355C0 10.4186 0.429489 10.8609 0.958681 10.8609L2.87604 10.8599V18.7597C2.87604 19.3047 3.30553 19.7471 3.83472 19.7471H5.75209C6.28128 19.7471 6.71077 19.3047 6.71077 18.7597V10.8579L8.79494 10.857C9.28195 10.857 9.69131 10.4808 9.74691 9.98216L9.96645 8.01141C10.0326 7.42591 9.58777 6.9115 9.01448 6.9115Z" fill="white"/>
</svg>
