<svg width="20" height="20" viewBox="0 0 20 20" fill="none" xmlns="http://www.w3.org/2000/svg">
<path d="M5.55556 0C2.48778 0 0 2.45632 0 5.4853V14.2618C0 17.2908 2.48778 19.7471 5.55556 19.7471H14.4444C17.5122 19.7471 20 17.2908 20 14.2618V5.4853C20 2.45632 17.5122 0 14.4444 0H5.55556ZM16.6667 2.19412C17.28 2.19412 17.7778 2.6856 17.7778 3.29118C17.7778 3.89676 17.28 4.38824 16.6667 4.38824C16.0533 4.38824 15.5556 3.89676 15.5556 3.29118C15.5556 2.6856 16.0533 2.19412 16.6667 2.19412ZM10 4.38824C13.0678 4.38824 15.5556 6.84455 15.5556 9.87354C15.5556 12.9025 13.0678 15.3588 10 15.3588C6.93222 15.3588 4.44444 12.9025 4.44444 9.87354C4.44444 6.84455 6.93222 4.38824 10 4.38824ZM10 6.58236C9.11595 6.58236 8.2681 6.9291 7.64298 7.54632C7.01786 8.16354 6.66667 9.00066 6.66667 9.87354C6.66667 10.7464 7.01786 11.5835 7.64298 12.2008C8.2681 12.818 9.11595 13.1647 10 13.1647C10.8841 13.1647 11.7319 12.818 12.357 12.2008C12.9821 11.5835 13.3333 10.7464 13.3333 9.87354C13.3333 9.00066 12.9821 8.16354 12.357 7.54632C11.7319 6.9291 10.8841 6.58236 10 6.58236Z" fill="white"/>
</svg>
