<svg width="25" height="15" viewBox="0 0 25 15" fill="none" xmlns="http://www.w3.org/2000/svg">
<path d="M24.8674 12.7194C24.8371 12.655 24.8089 12.6015 24.7827 12.5587C24.349 11.7874 23.5201 10.8406 22.2966 9.71809L22.2707 9.69239L22.2578 9.67978L22.2447 9.66686H22.2316C21.6763 9.14418 21.3246 8.79273 21.1774 8.6128C20.9079 8.27005 20.8476 7.92311 20.9948 7.57157C21.0989 7.30597 21.4897 6.74507 22.1663 5.88809C22.5222 5.43392 22.8041 5.06992 23.0123 4.79568C24.5136 2.82486 25.1645 1.56548 24.9648 1.01704L24.8873 0.888878C24.8352 0.81172 24.7007 0.741134 24.484 0.67676C24.2668 0.612522 23.9892 0.601898 23.6507 0.644709L19.9021 0.670278C19.8413 0.64903 19.7546 0.651011 19.6416 0.67676C19.5288 0.70251 19.4724 0.71543 19.4724 0.71543L19.4071 0.747617L19.3553 0.786285C19.3119 0.811855 19.2642 0.856827 19.2121 0.92111C19.1602 0.985169 19.1169 1.06035 19.0822 1.14601C18.6741 2.18279 18.2101 3.14672 17.6893 4.03778C17.3682 4.56911 17.0733 5.02958 16.804 5.41947C16.5351 5.80922 16.3095 6.09638 16.1274 6.28045C15.945 6.46471 15.7804 6.61232 15.6326 6.72382C15.4851 6.83537 15.3724 6.8825 15.2944 6.86526C15.2162 6.84802 15.1426 6.83092 15.0729 6.81381C14.9515 6.73665 14.8538 6.63172 14.7802 6.49892C14.7062 6.36612 14.6565 6.19897 14.6304 5.99762C14.6045 5.79612 14.5892 5.62281 14.5848 5.47709C14.5808 5.33155 14.5826 5.12569 14.5914 4.8601C14.6005 4.59436 14.6045 4.41457 14.6045 4.3203C14.6045 3.99465 14.611 3.64123 14.6239 3.25994C14.637 2.87865 14.6476 2.57655 14.6565 2.35398C14.6653 2.1312 14.6694 1.89549 14.6694 1.647C14.6694 1.39851 14.6541 1.20363 14.6239 1.06219C14.5939 0.92093 14.548 0.78381 14.4875 0.650876C14.4267 0.518077 14.3376 0.41535 14.2207 0.342423C14.1036 0.269587 13.958 0.211785 13.7847 0.16884C13.3247 0.0660672 12.739 0.0104719 12.0273 0.00182874C10.4133 -0.0152775 9.37629 0.0876299 8.91637 0.310416C8.73415 0.404546 8.56925 0.533158 8.42181 0.695847C8.26557 0.884421 8.24378 0.987329 8.35657 1.00426C8.8773 1.08128 9.24595 1.26553 9.46291 1.55683L9.5411 1.71119C9.60192 1.82256 9.66264 2.01974 9.72342 2.30244C9.7841 2.58514 9.82326 2.89787 9.84049 3.24045C9.8838 3.86604 9.8838 4.40156 9.84049 4.84704C9.79705 5.2927 9.75601 5.63965 9.71685 5.88814C9.67769 6.13663 9.61915 6.33799 9.5411 6.49217C9.46291 6.64639 9.41089 6.74066 9.38482 6.77487C9.35878 6.80908 9.33708 6.83065 9.31985 6.83911C9.20706 6.88178 9.08975 6.90353 8.96835 6.90353C8.84676 6.90353 8.69932 6.84348 8.5258 6.72346C8.35233 6.60345 8.17229 6.4386 7.98569 6.22864C7.79908 6.01864 7.58864 5.72518 7.35426 5.34821C7.12006 4.97124 6.87706 4.52571 6.6254 4.01163L6.41719 3.6388C6.28703 3.39895 6.10923 3.04971 5.8836 2.5914C5.65783 2.13291 5.45828 1.68941 5.28481 1.26098C5.21547 1.08105 5.11129 0.944069 4.97247 0.849804L4.90732 0.811135C4.86401 0.776922 4.79449 0.740594 4.69911 0.70188C4.6036 0.66321 4.50394 0.63548 4.39972 0.618419L0.833213 0.643989C0.468762 0.643989 0.221479 0.725513 0.0912723 0.888338L0.0391623 0.965361C0.0131301 1.00826 0 1.07678 0 1.17109C0 1.26535 0.0260322 1.38104 0.0781422 1.51803C0.598786 2.72627 1.16498 3.89152 1.77671 5.01396C2.38844 6.1364 2.92003 7.04056 3.37115 7.72562C3.82236 8.41117 4.28228 9.0582 4.7509 9.66637C5.21953 10.2748 5.52972 10.6647 5.68149 10.8359C5.83345 11.0075 5.9528 11.1358 6.03956 11.2215L6.36503 11.5299C6.57329 11.7356 6.87911 11.9819 7.28264 12.2689C7.68625 12.5561 8.13308 12.8388 8.62336 13.1175C9.11373 13.3957 9.68421 13.6228 10.3351 13.7984C10.9859 13.9742 11.6193 14.0447 12.2355 14.0107H13.7324C14.036 13.9848 14.266 13.8905 14.4223 13.7278L14.4741 13.6634C14.509 13.6123 14.5416 13.5328 14.5717 13.4259C14.6021 13.3188 14.6172 13.2008 14.6172 13.0725C14.6084 12.7041 14.6368 12.3721 14.7017 12.0765C14.7666 11.7811 14.8405 11.5583 14.9232 11.4082C15.0059 11.2583 15.0991 11.1318 15.2029 11.0293C15.307 10.9265 15.3811 10.8643 15.4246 10.8428C15.4678 10.8213 15.5023 10.8066 15.5284 10.7979C15.7366 10.7293 15.9817 10.7957 16.264 10.9972C16.5461 11.1986 16.8106 11.4472 17.0581 11.7427C17.3054 12.0385 17.6026 12.3703 17.9496 12.7387C18.2969 13.1072 18.6005 13.3811 18.8608 13.5613L19.121 13.7155C19.2948 13.8184 19.5204 13.9127 19.7982 13.9983C20.0754 14.084 20.3183 14.1054 20.5269 14.0626L23.8589 14.0113C24.1885 14.0113 24.445 13.9574 24.6269 13.8505C24.8091 13.7434 24.9174 13.6254 24.9523 13.497C24.9872 13.3686 24.989 13.2228 24.959 13.0598C24.9281 12.8973 24.8977 12.7836 24.8674 12.7194Z" fill="white"/>
</svg>
